<svg xmlns="http://www.w3.org/2000/svg" width="500" height="500" viewBox="112.363 112.363 150.273 150.273"><defs><clipPath id="69fdc46379"><path d="M112.363 112.363h150.274v150.274H112.363Zm0 0"/></clipPath><clipPath id="3877387c0f"><path d="M129.613 112.363h115.774c9.527 0 17.25 7.723 17.25 17.25v115.774c0 9.527-7.723 17.25-17.25 17.25H129.613c-9.527 0-17.25-7.723-17.25-17.25V129.613c0-9.527 7.723-17.25 17.25-17.25m0 0"/></clipPath><clipPath id="0cca8add6d"><path d="M.363.363h150.274v150.274H.363Zm0 0"/></clipPath><clipPath id="e0ef3f16f5"><path d="M17.613.363h115.774c9.527 0 17.25 7.723 17.25 17.25v115.774c0 9.527-7.723 17.25-17.25 17.25H17.613c-9.527 0-17.25-7.723-17.25-17.25V17.613c0-9.527 7.723-17.25 17.25-17.25m0 0"/></clipPath><clipPath id="6cf2896880"><path d="M0 0h151v151H0z"/></clipPath><clipPath id="e832ff4623"><path d="M112.363 112.363h150v150h-150Zm0 0"/></clipPath><clipPath id="b0e797d18c"><path d="M129.613 112.363h115.77c9.527 0 17.25 7.723 17.25 17.25v115.77c0 9.527-7.723 17.25-17.25 17.25h-115.77c-9.527 0-17.25-7.723-17.25-17.25v-115.77c0-9.527 7.723-17.25 17.25-17.25m0 0"/></clipPath><clipPath id="459b11b55e"><path d="M204.074 164.523h39.13v52.426h-39.13Zm0 0"/></clipPath><clipPath id="b8d33eaf24"><path d="m223.64 216.848 19.563-19.567h-9.781v-32.758h-19.567v32.758h-9.78Zm0 0"/></clipPath><clipPath id="8fdda4ab32"><path d="M.074.523h39.13V52.95H.073Zm0 0"/></clipPath><clipPath id="2b84d311d5"><path d="M19.64 52.848 39.204 33.28h-9.781V.523H9.855v32.758H.075Zm0 0"/></clipPath><clipPath id="839f8f0739"><path d="M0 0h40v53H0z"/></clipPath><clipPath id="1ddffb10fb"><path d="M0 0h65v87H0z"/></clipPath></defs><g clip-path="url(#69fdc46379)"><g clip-path="url(#3877387c0f)"><g clip-path="url(#6cf2896880)" transform="translate(112 112)"><g clip-path="url(#0cca8add6d)"><g clip-path="url(#e0ef3f16f5)"><path fill="#545454" d="M.363.363h150.274v150.274H.363Zm0 0"/></g></g></g></g></g><g clip-path="url(#e832ff4623)"><g clip-path="url(#b0e797d18c)"><path fill="none" stroke="#fff" stroke-width="15" d="M129.613 112.363h115.77c9.527 0 17.25 7.723 17.25 17.25v115.77c0 9.527-7.723 17.25-17.25 17.25h-115.77c-9.527 0-17.25-7.723-17.25-17.25v-115.77c0-9.527 7.723-17.25 17.25-17.25Zm0 0"/></g></g><g clip-path="url(#459b11b55e)"><g clip-path="url(#b8d33eaf24)"><g clip-path="url(#839f8f0739)" transform="translate(204 164)"><g clip-path="url(#8fdda4ab32)"><g clip-path="url(#2b84d311d5)"><path fill="#fff" d="M39.203.523v52.274H.074V.523Zm0 0"/></g></g></g></g></g><g clip-path="url(#1ddffb10fb)" transform="translate(131 152)"><path fill="#fff" d="m50.555 62.204-2.64-33.281h-.345L36.07 61.86h-7.625l-11.5-32.937h-.343l-2.657 33.281H1.165l5.03-56.14h13.61l12.453 32.39L44.71 6.064h13.61l5.03 56.14Zm0 0"/></g></svg>