<svg xmlns="http://www.w3.org/2000/svg" width="20" height="20" viewBox="0 0 16 16"><path fill="#ffff" d="M6.848 2.47a1 1 0 0 1-.318 1.378A7.3 7.3 0 0 0 3.75 7.01 3 3 0 1 1 1 10v-.027a4 4 0 0 1 .01-.232c.009-.15.027-.36.062-.618.07-.513.207-1.22.484-2.014.552-1.59 1.67-3.555 3.914-4.957a1 1 0 0 1 1.378.318m7 0a1 1 0 0 1-.318 1.378 7.3 7.3 0 0 0-2.78 3.162A3 3 0 1 1 8 10v-.027a4 4 0 0 1 .01-.232c.009-.15.027-.36.062-.618.07-.513.207-1.22.484-2.014.552-1.59 1.67-3.555 3.914-4.957a1 1 0 0 1 1.378.318"/></svg>