<?xml version="1.0" encoding="UTF-8"?>
<svg xmlns="http://www.w3.org/2000/svg" xmlns:xlink="http://www.w3.org/1999/xlink" width="120px" height="120px" viewBox="0 0 120 120" version="1.1">
<defs>
<clipPath id="clip1">
  <path d="M 5.519531 0 L 114.480469 0 C 115.945312 0 117.347656 0.582031 118.382812 1.617188 C 119.417969 2.652344 120 4.054688 120 5.519531 L 120 114.480469 C 120 115.945312 119.417969 117.347656 118.382812 118.382812 C 117.347656 119.417969 115.945312 120 114.480469 120 L 5.519531 120 C 2.472656 120 0 117.527344 0 114.480469 L 0 5.519531 C 0 2.472656 2.472656 0 5.519531 0 Z M 5.519531 0 "/>
</clipPath>
<clipPath id="clip2">
  <path d="M 5.519531 0 L 114.480469 0 C 115.945312 0 117.347656 0.582031 118.382812 1.617188 C 119.417969 2.652344 120 4.054688 120 5.519531 L 120 114.480469 C 120 115.945312 119.417969 117.347656 118.382812 118.382812 C 117.347656 119.417969 115.945312 120 114.480469 120 L 5.519531 120 C 2.472656 120 0 117.527344 0 114.480469 L 0 5.519531 C 0 2.472656 2.472656 0 5.519531 0 Z M 5.519531 0 "/>
</clipPath>
<clipPath id="clip3">
  <path d="M 5.519531 0 L 114.480469 0 C 115.945312 0 117.347656 0.582031 118.382812 1.617188 C 119.417969 2.652344 120 4.054688 120 5.519531 L 120 114.480469 C 120 115.945312 119.417969 117.347656 118.382812 118.382812 C 117.347656 119.417969 115.945312 120 114.480469 120 L 5.519531 120 C 2.472656 120 0 117.527344 0 114.480469 L 0 5.519531 C 0 2.472656 2.472656 0 5.519531 0 Z M 5.519531 0 "/>
</clipPath>
<clipPath id="clip4">
  <path d="M 73.234375 41.652344 L 104.484375 41.652344 L 104.484375 83.480469 L 73.234375 83.480469 Z M 73.234375 41.652344 "/>
</clipPath>
<clipPath id="clip5">
  <path d="M 88.859375 83.4375 L 104.484375 67.8125 L 96.671875 67.8125 L 96.671875 41.652344 L 81.046875 41.652344 L 81.046875 67.8125 L 73.234375 67.8125 Z M 88.859375 83.4375 "/>
</clipPath>
<clipPath id="clip6">
  <path d="M 88.859375 83.4375 L 104.484375 67.8125 L 96.671875 67.8125 L 96.671875 41.652344 L 81.046875 41.652344 L 81.046875 67.8125 L 73.234375 67.8125 Z M 88.859375 83.4375 "/>
</clipPath>
</defs>
<g id="surface1">
<g clip-path="url(#clip1)" clip-rule="nonzero">
<g clip-path="url(#clip2)" clip-rule="nonzero">
<rect x="0" y="0" width="120" height="120" style="fill:rgb(32.941177%,32.941177%,32.941177%);fill-opacity:1;stroke:none;"/>
</g>
</g>
<g clip-path="url(#clip3)" clip-rule="nonzero">
<path style="fill:none;stroke-width:20;stroke-linecap:butt;stroke-linejoin:miter;stroke:rgb(100%,100%,100%);stroke-opacity:1;stroke-miterlimit:4;" d="M 22.998041 -0.000000000000085265 L 477.001947 -0.000000000000085265 C 483.105463 -0.000000000000085265 488.948562 2.42513 493.261713 6.738281 C 497.574864 11.051432 499.999994 16.894531 499.999994 22.998047 L 499.999994 477.001953 C 499.999994 483.105469 497.574864 488.948568 493.261713 493.261719 C 488.948562 497.57487 483.105463 500 477.001947 500 L 22.998041 500 C 10.302728 500 -0.000006 489.697266 -0.000006 477.001953 L -0.000006 22.998047 C -0.000006 10.302734 10.302728 -0.000000000000085265 22.998041 -0.000000000000085265 Z M 22.998041 -0.000000000000085265 " transform="matrix(0.24,0,0,0.24,0.00000144,0.000000000000020464)"/>
</g>
<g clip-path="url(#clip4)" clip-rule="nonzero">
<g clip-path="url(#clip5)" clip-rule="nonzero">
<g clip-path="url(#clip6)" clip-rule="nonzero">
<path style=" stroke:none;fill-rule:nonzero;fill:rgb(100%,100%,100%);fill-opacity:1;" d="M 104.484375 41.652344 L 104.484375 83.394531 L 73.234375 83.394531 L 73.234375 41.652344 Z M 104.484375 41.652344 "/>
</g>
</g>
</g>
<path style=" stroke:none;fill-rule:nonzero;fill:rgb(100%,100%,100%);fill-opacity:1;" d="M 55.261719 81.324219 L 53.144531 54.75 L 52.871094 54.75 L 43.6875 81.054688 L 37.597656 81.054688 L 28.417969 54.75 L 28.144531 54.75 L 26.023438 81.324219 L 15.808594 81.324219 L 19.828125 36.488281 L 30.699219 36.488281 L 40.644531 62.359375 L 50.589844 36.488281 L 61.457031 36.488281 L 65.476562 81.324219 Z M 55.261719 81.324219 "/>
</g>
</svg>
